<?xml version="1.0" encoding="UTF-8" standalone="no"?>
<!DOCTYPE svg PUBLIC "-//W3C//DTD SVG 1.1//EN"
 "http://www.w3.org/Graphics/SVG/1.1/DTD/svg11.dtd">
<!-- Generated by graphviz version 12.1.2 (20240928.0832)
 -->
<!-- Pages: 1 -->
<svg width="548pt" height="116pt"
 viewBox="0.00 0.00 548.00 116.00" xmlns="http://www.w3.org/2000/svg" xmlns:xlink="http://www.w3.org/1999/xlink">
<g id="graph0" class="graph" transform="scale(1 1) rotate(0) translate(4 112)">
<polygon fill="white" stroke="none" points="-4,4 -4,-112 544,-112 544,4 -4,4"/>
<!-- Начало -->
<g id="node1" class="node">
<title>Начало</title>
<ellipse fill="none" stroke="black" cx="54" cy="-54" rx="54" ry="54"/>
<text text-anchor="middle" x="54" y="-50.12" font-family="Times New Roman,serif" font-size="10.00">Начало</text>
</g>
<!-- Задача 1 -->
<g id="node2" class="node">
<title>Задача 1</title>
<polygon fill="none" stroke="black" points="252,-72 144,-72 144,-36 252,-36 252,-72"/>
<text text-anchor="middle" x="198" y="-50.12" font-family="Times New Roman,serif" font-size="10.00">Задача 1</text>
</g>
<!-- Начало&#45;&gt;Задача 1 -->
<g id="edge1" class="edge">
<title>Начало&#45;&gt;Задача 1</title>
<path fill="none" stroke="black" d="M108.28,-54C116.2,-54 124.43,-54 132.54,-54"/>
<polygon fill="black" stroke="black" points="132.38,-57.5 142.38,-54 132.38,-50.5 132.38,-57.5"/>
</g>
<!-- Задача 2 -->
<g id="node3" class="node">
<title>Задача 2</title>
<polygon fill="none" stroke="black" points="396,-72 288,-72 288,-36 396,-36 396,-72"/>
<text text-anchor="middle" x="342" y="-50.12" font-family="Times New Roman,serif" font-size="10.00">Задача 2</text>
</g>
<!-- Задача 1&#45;&gt;Задача 2 -->
<g id="edge2" class="edge">
<title>Задача 1&#45;&gt;Задача 2</title>
<path fill="none" stroke="black" d="M252.28,-54C260.2,-54 268.43,-54 276.54,-54"/>
<polygon fill="black" stroke="black" points="276.38,-57.5 286.38,-54 276.38,-50.5 276.38,-57.5"/>
</g>
<!-- Задача 3 -->
<g id="node4" class="node">
<title>Задача 3</title>
<ellipse fill="none" stroke="black" cx="486" cy="-54" rx="54" ry="54"/>
<text text-anchor="middle" x="486" y="-50.12" font-family="Times New Roman,serif" font-size="10.00">Задача 3</text>
</g>
<!-- Задача 2&#45;&gt;Задача 3 -->
<g id="edge3" class="edge">
<title>Задача 2&#45;&gt;Задача 3</title>
<path fill="none" stroke="black" d="M396.28,-54C404.2,-54 412.43,-54 420.54,-54"/>
<polygon fill="black" stroke="black" points="420.38,-57.5 430.38,-54 420.38,-50.5 420.38,-57.5"/>
</g>
</g>
</svg>
